<svg xmlns="http://www.w3.org/2000/svg" style="display:none">

  <!-- Instagram -->
  <symbol id="instagram" viewBox="0 0 24 24">
    <path d="M12 2.163c3.204 0 3.584.012 4.85.07 3.252.148 4.771 1.691 4.919 4.919.058 1.265.069 1.645.069 4.849 0 3.205-.012 3.584-.069 4.849-.149 3.225-1.664 4.771-4.919 4.919-1.266.058-1.644.07-4.85.07-3.204 0-3.584-.012-4.849-.07-3.26-.149-4.771-1.699-4.919-4.92-.058-1.265-.07-1.644-.07-4.849 0-3.204.013-3.583.07-4.849.149-3.227 1.664-4.771 4.919-4.919 1.266-.057 1.645-.069 4.849-.069zM12 0C8.741 0 8.333.014 7.053.072 2.695.272.273 2.69.073 7.052.014 8.333 0 8.741 0 12c0 3.259.014 3.668.072 4.948.2 4.358 2.618 6.78 6.98 6.98C8.333 23.986 8.741 24 12 24c3.259 0 3.668-.014 4.948-.072 4.354-.2 6.782-2.618 6.979-6.98.059-1.28.073-1.689.073-4.948 0-3.259-.014-3.667-.072-4.947-.196-4.354-2.617-6.78-6.979-6.98C15.668.014 15.259 0 12 0zm0 5.838a6.162 6.162 0 100 12.324 6.162 6.162 0 000-12.324zM12 16a4 4 0 110-8 4 4 0 010 8zm6.406-11.845a1.44 1.44 0 100 2.881 1.44 1.44 0 000-2.881z"/>
  </symbol>

  <!-- YouTube -->
  <symbol id="youtube" viewBox="0 0 24 24">
    <path d="M23.498 6.186a3.016 3.016 0 00-2.122-2.136C19.505 3.545 12 3.545 12 3.545s-7.505 0-9.377.505A3.017 3.017 0 00.502 6.186C0 8.07 0 12 0 12s0 3.93.502 5.814a3.016 3.016 0 002.122 2.136c1.871.505 9.376.505 9.376.505s7.505 0 9.377-.505a3.015 3.015 0 002.122-2.136C24 15.93 24 12 24 12s0-3.93-.502-5.814zM9.545 15.568V8.432L15.818 12l-6.273 3.568z"/>
  </symbol>

  <!-- SoundCloud -->
  <symbol id="soundcloud" viewBox="0 0 24 24">
    <path d="M1.175 12.225c-.051 0-.094.046-.101.1l-.233 2.154.233 2.105c.007.058.05.098.101.098.05 0 .09-.04.099-.098l.255-2.105-.27-2.154c-.009-.057-.05-.1-.1-.1m-.899.828c-.06 0-.091.037-.104.094L0 14.479l.172 1.308c.013.06.045.094.104.094.057 0 .09-.037.104-.094l.194-1.308-.194-1.332c-.014-.057-.047-.094-.104-.094m1.81-.954c-.074 0-.12.06-.12.135l-.217 2.245.217 2.167c0 .074.046.135.12.135.073 0 .12-.06.12-.135l.244-2.167-.244-2.245c0-.074-.047-.135-.12-.135m.862-.18c-.088 0-.135.061-.135.149l-.203 2.376.203 2.215c0 .088.047.149.135.149.088 0 .135-.06.135-.149l.226-2.215-.226-2.376c0-.088-.047-.149-.135-.149m.89-.217c-.09 0-.15.074-.15.163l-.194 2.544.194 2.26c0 .09.06.164.15.164.09 0 .15-.074.15-.164l.217-2.26-.217-2.544c0-.09-.06-.163-.15-.163m.93-.204c-.104 0-.166.074-.166.178l-.18 2.7.18 2.279c0 .104.062.178.166.178.104 0 .166-.074.166-.178l.203-2.279-.203-2.7c0-.104-.062-.178-.166-.178m.91-.098c-.12 0-.18.09-.18.194l-.172 2.752.172 2.293c0 .12.06.194.18.194s.18-.074.18-.194l.193-2.293-.193-2.752c0-.104-.06-.194-.18-.194m.958-.143c-.12 0-.194.09-.194.21l-.158 2.846.158 2.312c0 .12.074.21.194.21.119 0 .193-.09.193-.21l.176-2.312-.176-2.846c0-.12-.074-.21-.193-.21m.943-.09c-.136 0-.21.09-.21.226l-.143 2.888.143 2.322c0 .136.074.226.21.226.135 0 .21-.09.21-.226l.163-2.322-.163-2.888c0-.136-.075-.226-.21-.226m.975-.158c-.15 0-.225.105-.225.24l-.135 3 .135 2.339c0 .15.075.24.225.24.15 0 .225-.09.225-.24l.15-2.34-.15-2.999c0-.135-.075-.24-.225-.24m.976-.054c-.163 0-.24.105-.24.256l-.12 3.008.12 2.347c0 .163.077.256.24.256.165 0 .24-.105.24-.256l.135-2.347-.135-3.008c0-.15-.075-.256-.24-.256m1.022-.108c-.18 0-.27.12-.27.27l-.107 3.07.107 2.356c0 .18.09.27.27.27.178 0 .27-.09.27-.27l.12-2.356-.12-3.07c0-.15-.09-.27-.27-.27m.958.015c-.18 0-.285.12-.285.285l-.09 3.027.09 2.37c0 .18.105.285.285.285s.285-.105.285-.285l.098-2.37-.098-3.027c0-.165-.105-.285-.285-.285m1.003-.12c-.193 0-.3.135-.3.3l-.078 3.1.078 2.377c0 .193.107.3.3.3.192 0 .3-.107.3-.3l.09-2.378-.09-3.1c0-.164-.108-.299-.3-.299m2.967 1.14c-.478 0-.927.09-1.342.27-.27-3.083-2.86-5.49-6.008-5.49-.78 0-1.536.15-2.22.42-.256.1-.324.203-.33.405v10.67c.008.2.158.36.348.39h9.552a3.424 3.424 0 003.42-3.432 3.424 3.424 0 00-3.42-3.233z"/>
  </symbol>

  <!-- Bandcamp -->
  <symbol id="bandcamp" viewBox="0 0 24 24">
    <path d="M0 18.75l7.437-13.5H24l-7.438 13.5z"/>
  </symbol>

  <!-- Telegram -->
  <symbol id="telegram" viewBox="0 0 24 24">
    <path d="M11.944 0A12 12 0 000 12a12 12 0 0012 12 12 12 0 0012-12A12 12 0 0012 0a12 12 0 00-.056 0zm4.962 7.224c.1-.002.321.023.465.14a.506.506 0 01.171.325c.016.093.036.306.02.472-.18 1.898-.962 6.502-1.36 8.627-.168.9-.499 1.201-.82 1.23-.696.065-1.225-.46-1.9-.902-1.056-.693-1.653-1.124-2.678-1.8-1.185-.78-.417-1.21.258-1.91.177-.184 3.247-2.977 3.307-3.23.007-.032.014-.15-.056-.212s-.174-.041-.249-.024c-.106.024-1.793 1.14-5.061 3.345-.48.33-.913.49-1.302.48-.428-.008-1.252-.241-1.865-.44-.752-.245-1.349-.374-1.297-.789.027-.216.325-.437.893-.663 3.498-1.524 5.83-2.529 6.998-3.014 3.332-1.386 4.025-1.627 4.476-1.635z"/>
  </symbol>

  <!-- Email -->
  <symbol id="email" viewBox="0 0 24 24">
    <path d="M20 4H4c-1.1 0-1.99.9-1.99 2L2 18c0 1.1.9 2 2 2h16c1.1 0 2-.9 2-2V6c0-1.1-.9-2-2-2zm0 4l-8 5-8-5V6l8 5 8-5v2z"/>
  </symbol>

</svg>
