<?xml version="1.0" encoding="utf-8"?>
<!-- Generator: Adobe Illustrator 27.5.0, SVG Export Plug-In . SVG Version: 6.00 Build 0)  -->
<svg version="1.1" id="Layer_1" xmlns="http://www.w3.org/2000/svg" xmlns:xlink="http://www.w3.org/1999/xlink" x="0px" y="0px"
	 viewBox="0 0 800 800" style="enable-background:new 0 0 800 800;" xml:space="preserve">
<style type="text/css">
	.st0{fill:#F2F2F0;}
</style>
<path class="st0" d="M199.61,199.62L341.54,58.69c77.31,77.86,76.86,205.54-1,282.84s-205.54,76.86-282.84-1s-76.86-205.54,1-282.84
	L199.61,199.62z"/>
<circle class="st0" cx="200" cy="600" r="200"/>
<path class="st0" d="M600,200v200c-109.72,0-200-90.28-200-200S490.28,0,600,0s200,90.28,200,200H600z"/>
<path class="st0" d="M600,600L458.58,741.42c-77.58-77.58-77.58-205.26,0-282.84s205.26-77.58,282.84,0s77.58,205.26,0,282.84
	L600,600z"/>
</svg>
